# xmcd CD database file
#
# Track frame offsets:
#	183
#	17738
#	29600
#	45660
#	63180
#	83488
#	98710
#	116393
#	129975
#	141208
#	157095
#	181293
#
# Disc length: 2667 seconds
#
# Revision: 0
# Processed by: cddbd v1.4PL0 Copyright (c) Steve Scherf et al.
# Submitted via: CDex 1.50Beta7
#
DISCID=940a690c
DTITLE=Various Artist - Country Dreams
DYEAR=1992
DGENRE=Country
TTITLE0=Boss Band - Airport
TTITLE1=Nina Nova Band - Out of the country
TTITLE2=Gunsmoke - Simple Heart
TTITLE3=George and Lucky Riders - Separate Lives
TTITLE4=Buffalo Bernie and Friends - Wenn die Liebe dich erwischt
TTITLE5=John Brack and Nina Nova - Help me make it through the night
TTITLE6=George and Lucky Riders - Die Frau eines Truckers
TTITLE7=Michael Dee - Blaue Augen
TTITLE8=Ralf Paulsen - Ich wünsch dir Glück
TTITLE9=Nina Nova and Band - It´s another silent night
TTITLE10=Gunsmoke - Call me Driftwood
TTITLE11=Boss band - Little Sea
EXTD=YEAR: 1992
EXTT0=
EXTT1=
EXTT2=
EXTT3=
EXTT4=
EXTT5=
EXTT6=
EXTT7=
EXTT8=
EXTT9=
EXTT10=
EXTT11=
PLAYORDER=
